<!-- 3D Animated Heartbeat -->
<svg width="200" height="200" viewBox="0 0 200 200" xmlns="http://www.w3.org/2000/svg">
  <defs>
    <linearGradient id="heartGradient" x1="0%" y1="0%" x2="100%" y2="100%">
      <stop offset="0%" style="stop-color:#C41E3A;stop-opacity:1" />
      <stop offset="50%" style="stop-color:#8B1538;stop-opacity:1" />
      <stop offset="100%" style="stop-color:#C41E3A;stop-opacity:1" />
    </linearGradient>
    
    <filter id="glow">
      <feGaussianBlur stdDeviation="4" result="coloredBlur"/>
      <feMerge>
        <feMergeNode in="coloredBlur"/>
        <feMergeNode in="SourceGraphic"/>
      </feMerge>
    </filter>
  </defs>
  
  <!-- Pulsing Circle Background -->
  <circle cx="100" cy="100" r="70" fill="none" stroke="#C41E3A" stroke-width="2" opacity="0.3">
    <animate attributeName="r" values="70;80;70" dur="1.5s" repeatCount="indefinite"/>
    <animate attributeName="opacity" values="0.3;0;0.3" dur="1.5s" repeatCount="indefinite"/>
  </circle>
  
  <!-- Heart Shape -->
  <g filter="url(#glow)">
    <path d="M 100,120 
             C 100,110 90,95 75,95 
             C 60,95 55,105 55,115 
             C 55,135 100,165 100,165 
             C 100,165 145,135 145,115 
             C 145,105 140,95 125,95 
             C 110,95 100,110 100,120 Z" 
          fill="url(#heartGradient)" stroke="#8B1538" stroke-width="2">
      <animateTransform
        attributeName="transform"
        type="scale"
        values="1 1; 1.1 1.1; 1 1; 1.05 1.05; 1 1"
        dur="1.5s"
        repeatCount="indefinite"
        additive="sum"/>
      <animate attributeName="opacity" values="1;0.8;1;0.9;1" dur="1.5s" repeatCount="indefinite"/>
    </path>
  </g>
  
  <!-- ECG Line -->
  <g transform="translate(0, 100)">
    <polyline points="20,0 40,0 45,-20 50,30 55,-10 60,0 180,0" 
              fill="none" stroke="#0077BE" stroke-width="3" opacity="0.8">
      <animate attributeName="stroke-dasharray" values="0,200; 200,0" dur="2s" repeatCount="indefinite"/>
      <animate attributeName="opacity" values="0.8;1;0.8" dur="2s" repeatCount="indefinite"/>
    </polyline>
  </g>
  
  <!-- Pulse Waves -->
  <circle cx="100" cy="120" r="50" fill="none" stroke="#C41E3A" stroke-width="2" opacity="0">
    <animate attributeName="r" values="30;60;90" dur="2s" repeatCount="indefinite"/>
    <animate attributeName="opacity" values="0.6;0.3;0" dur="2s" repeatCount="indefinite"/>
  </circle>
  
  <!-- Plus Symbol -->
  <g transform="translate(100, 120)" opacity="0.9">
    <rect x="-2" y="-10" width="4" height="20" fill="white"/>
    <rect x="-10" y="-2" width="20" height="4" fill="white"/>
  </g>
</svg>
